<svg width="15" height="15" viewBox="0 0 15 15" fill="none" xmlns="http://www.w3.org/2000/svg">
<path fill-rule="evenodd" clip-rule="evenodd" d="M14.0731 3.32725C14.2428 3.169 14.3788 2.97821 14.4732 2.76624C14.5676 2.55428 14.6183 2.32549 14.6223 2.0935C14.6264 1.86152 14.5836 1.6311 14.4967 1.41598C14.4098 1.20086 14.2805 1.00544 14.1164 0.841378C13.9523 0.677316 13.7569 0.547971 13.5418 0.461052C13.3267 0.374132 13.0963 0.331421 12.8643 0.335461C12.6323 0.339503 12.4035 0.390215 12.1915 0.484574C11.9796 0.578934 11.7888 0.715008 11.6305 0.884684L7.47803 5.03719L3.32552 0.884685C3.16727 0.715008 2.97648 0.578934 2.76452 0.484575C2.55255 0.390215 2.32376 0.339503 2.09178 0.335462C1.85979 0.331421 1.62937 0.374133 1.41425 0.461052C1.19913 0.547972 1.00371 0.677317 0.839652 0.841378C0.67559 1.00544 0.546243 1.20086 0.459324 1.41598C0.372405 1.6311 0.329693 1.86152 0.333734 2.0935C0.337776 2.32549 0.388487 2.55428 0.482847 2.76624C0.577206 2.97821 0.71328 3.169 0.882957 3.32725L5.03546 7.47975L0.884439 11.6308C0.714763 11.789 0.578689 11.9798 0.48433 12.1918C0.389969 12.4037 0.33926 12.6325 0.335218 12.8645C0.331177 13.0965 0.373889 13.3269 0.460808 13.542C0.547728 13.7572 0.677074 13.9526 0.841135 14.1166C1.0052 14.2807 1.20061 14.4101 1.41573 14.497C1.63086 14.5839 1.86128 14.6266 2.09326 14.6226C2.32524 14.6185 2.55403 14.5678 2.766 14.4735C2.97796 14.3791 3.16876 14.243 3.327 14.0733L7.47951 9.92083L11.6305 14.0719C11.9593 14.3697 12.39 14.5297 12.8335 14.5188C13.2769 14.5079 13.6992 14.3268 14.0129 14.0132C14.3266 13.6995 14.5076 13.2772 14.5186 12.8337C14.5295 12.3902 14.3695 11.9595 14.0716 11.6308L9.91911 7.47827L14.0716 3.32576L14.0731 3.32725Z" fill="black"/>
</svg>
