<svg width="120" height="120" viewBox="0 0 120 120" fill="none" xmlns="http://www.w3.org/2000/svg">
  <!-- Gradient definitions -->
  <defs>
    <linearGradient id="goldGradient" x1="0%" y1="0%" x2="100%" y2="100%">
      <stop offset="0%" stop-color="#FFD700" />
      <stop offset="50%" stop-color="#FFA500" />
      <stop offset="100%" stop-color="#FF8C00" />
    </linearGradient>

    <radialGradient id="glowGradient" cx="50%" cy="50%" r="50%">
      <stop offset="0%" stop-color="#FFD700" stop-opacity="0.8" />
      <stop offset="70%" stop-color="#FFA500" stop-opacity="0.4" />
      <stop offset="100%" stop-color="#FF8C00" stop-opacity="0.1" />
    </radialGradient>

    <filter id="glow">
      <feGaussianBlur stdDeviation="2" result="coloredBlur" />
      <feMerge>
        <feMergeNode in="coloredBlur" />
        <feMergeNode in="SourceGraphic" />
      </feMerge>
    </filter>
  </defs>

  <!-- Background glow circle -->
  <circle cx="60" cy="60" r="55" fill="url(#glowGradient)" opacity="0.3" />

  <!-- Top star -->
  <g transform="translate(60, 25)">
    <path d="M0,-12 L3.5,-3.5 L12,0 L3.5,3.5 L0,12 L-3.5,3.5 L-12,0 L-3.5,-3.5 Z" 
          fill="url(#goldGradient)" filter="url(#glow)" />
    <circle cx="0" cy="0" r="2" fill="#FFFFFF" opacity="0.9" />
  </g>

  <!-- Bottom left star -->
  <g transform="translate(35, 85)">
    <path d="M0,-10 L3,-3 L10,0 L3,3 L0,10 L-3,3 L-10,0 L-3,-3 Z" 
          fill="url(#goldGradient)" filter="url(#glow)" />
    <circle cx="0" cy="0" r="1.5" fill="#FFFFFF" opacity="0.9" />
  </g>

  <!-- Bottom right star -->
  <g transform="translate(85, 85)">
    <path d="M0,-10 L3,-3 L10,0 L3,3 L0,10 L-3,3 L-10,0 L-3,-3 Z" 
          fill="url(#goldGradient)" filter="url(#glow)" />
    <circle cx="0" cy="0" r="1.5" fill="#FFFFFF" opacity="0.9" />
  </g>

  <!-- Central connecting element - stylized light rays -->
  <g transform="translate(60, 60)">
    <path d="M0,-25 L2,-20 L0,-15 L-2,-20 Z" fill="url(#goldGradient)" opacity="0.6" />
    <path d="M22,-12 L20,-7 L15,-9 L17,-14 Z" fill="url(#goldGradient)" opacity="0.6" />
    <path d="M22,12 L17,14 L15,9 L20,7 Z" fill="url(#goldGradient)" opacity="0.6" />
    <path d="M-22,12 L-20,7 L-15,9 L-17,14 Z" fill="url(#goldGradient)" opacity="0.6" />
    <path d="M-22,-12 L-17,-14 L-15,-9 L-20,-7 Z" fill="url(#goldGradient)" opacity="0.6" />
  </g>

  <!-- Central premium accent -->
  <circle cx="60" cy="60" r="4" fill="url(#goldGradient)" filter="url(#glow)" />
  <circle cx="60" cy="60" r="2" fill="#FFFFFF" opacity="0.8" />
</svg>