<svg width="19" height="20" viewBox="0 0 19 20" fill="none" xmlns="http://www.w3.org/2000/svg">
<path fill-rule="evenodd" clip-rule="evenodd" d="M11.4512 2.12426C11.4593 1.89238 11.4206 1.66125 11.3374 1.44465C11.2542 1.22804 11.1283 1.0304 10.9671 0.863511C10.806 0.696616 10.6128 0.563886 10.3993 0.473233C10.1857 0.38258 9.95603 0.335861 9.72402 0.335861C9.492 0.335861 9.26236 0.38258 9.04878 0.473233C8.83521 0.563886 8.64207 0.696616 8.48089 0.863511C8.31972 1.0304 8.19379 1.22804 8.11063 1.44465C8.02748 1.66125 7.98878 1.89238 7.99686 2.12426V7.99679H2.12433C1.89246 7.98871 1.66133 8.0274 1.44472 8.11056C1.22812 8.19372 1.03048 8.31964 0.863587 8.48082C0.696693 8.642 0.563962 8.83513 0.473309 9.04871C0.382656 9.26228 0.335938 9.49192 0.335938 9.72394C0.335938 9.95596 0.382656 10.1856 0.473309 10.3992C0.563962 10.6128 0.696693 10.8059 0.863587 10.9671C1.03048 11.1282 1.22812 11.2542 1.44472 11.3373C1.66133 11.4205 1.89246 11.4592 2.12433 11.4511H7.99686V17.3215C7.98878 17.5534 8.02748 17.7845 8.11063 18.0011C8.19379 18.2177 8.31972 18.4154 8.48089 18.5823C8.64207 18.7492 8.83521 18.8819 9.04878 18.9726C9.26236 19.0632 9.492 19.1099 9.72402 19.1099C9.95603 19.1099 10.1857 19.0632 10.3993 18.9726C10.6128 18.8819 10.806 18.7492 10.9671 18.5823C11.1283 18.4154 11.2542 18.2177 11.3374 18.0011C11.4206 17.7845 11.4593 17.5534 11.4512 17.3215V11.449H17.3216C17.7647 11.4271 18.1824 11.2358 18.4882 10.9144C18.7941 10.5931 18.9647 10.1665 18.9647 9.72289C18.9647 9.27928 18.7941 8.85266 18.4882 8.53134C18.1824 8.21003 17.7647 8.01864 17.3216 7.99679H11.4491V2.12426H11.4512Z" fill="black"/>
</svg>
