<svg width="24" height="23" viewBox="0 0 24 23" fill="none" xmlns="http://www.w3.org/2000/svg">
<path d="M5.23164 5.2544H1V4.40124H8.61582M5.23164 5.2544V21.4259H18.7684V5.2544M5.23164 5.2544H18.7684H5.23164ZM18.7684 5.2544H23V4.40124H15.3842M8.61582 4.40124V1H15.3842V4.40408M8.61582 4.40408H15.3842H8.61582Z"/>
<path d="M5.23164 5.25439H1V4.40124H8.61582V1H15.3842V4.40408H8.61582M5.23164 5.25439V21.4259H18.7684V5.25439M5.23164 5.25439H18.7684M18.7684 5.25439H23V4.40124H15.3842" stroke="black" stroke-width="1.8" stroke-linecap="round" stroke-linejoin="round"/>
<path d="M8.85742 8.85468V18.282V8.85468ZM11.9999 8.85468V18.282V8.85468ZM15.1423 8.85468V18.282V8.85468Z"/>
<path d="M8.85742 8.85468V18.282M11.9999 8.85468V18.282M15.1423 8.85468V18.282" stroke="black" stroke-width="1.8" stroke-linecap="round" stroke-linejoin="round"/>
</svg>
